<?xml version="1.0" encoding="utf-8"?>
<!-- Generator: Adobe Illustrator 26.0.3, SVG Export Plug-In . SVG Version: 6.00 Build 0)  -->
<svg version="1.1" id="Layer_1" xmlns="http://www.w3.org/2000/svg" xmlns:xlink="http://www.w3.org/1999/xlink" x="0px" y="0px"
	 viewBox="0 0 423.3 97.2" style="enable-background:new 0 0 423.3 97.2;" xml:space="preserve">
<style type="text/css">
	.st0{fill:#162950;}
	.st1{fill:#FFFFFF;}
	.st2{fill:#17406F;}
	.st3{fill:#00A8CC;}
</style>
<g>
	<g>
		<path class="st0" d="M257.5,78.1c0,0.5-0.1,1.1-0.1,1.9v4c0,1.6-0.3,2.6-1,3.2c-0.7,0.6-1.6,0.8-2.5,0.8c-0.8,0-1.7-0.2-2.3-0.6
			l0.3-1c0.5,0.3,1.2,0.5,2,0.5c1.3,0,2.2-0.7,2.2-2.4v-0.8h0c-0.4,0.6-1.1,1.2-2.2,1.2c-1.7,0-2.9-1.5-2.9-3.4
			c0-2.3,1.5-3.7,3.1-3.7c1.2,0,1.9,0.6,2.2,1.2h0l0.1-1H257.5z M256.2,80.8c0-0.2,0-0.4-0.1-0.6c-0.2-0.7-0.8-1.3-1.8-1.3
			c-1.2,0-2.1,1-2.1,2.6c0,1.4,0.7,2.5,2,2.5c0.8,0,1.5-0.5,1.7-1.3c0.1-0.2,0.1-0.5,0.1-0.7V80.8z"/>
		<path class="st0" d="M263.1,74.9h1.3V85h-1.3V74.9z"/>
		<path class="st0" d="M276.3,81.5c0,2.6-1.8,3.7-3.4,3.7c-1.9,0-3.3-1.4-3.3-3.6c0-2.3,1.5-3.7,3.4-3.7
			C274.9,77.9,276.3,79.4,276.3,81.5z M270.8,81.6c0,1.5,0.9,2.7,2.1,2.7c1.2,0,2.1-1.1,2.1-2.7c0-1.2-0.6-2.7-2.1-2.7
			C271.4,78.9,270.8,80.3,270.8,81.6z"/>
		<path class="st0" d="M281.4,85c0-0.5,0.1-1.2,0.1-1.8v-8.4h1.2v4.3h0c0.4-0.8,1.2-1.3,2.4-1.3c1.7,0,2.9,1.4,2.9,3.5
			c0,2.5-1.6,3.7-3.1,3.7c-1,0-1.8-0.4-2.3-1.3h0l-0.1,1.1H281.4z M282.7,82.2c0,0.2,0,0.3,0.1,0.5c0.2,0.9,1,1.5,1.9,1.5
			c1.3,0,2.1-1.1,2.1-2.7c0-1.4-0.7-2.6-2.1-2.6c-0.9,0-1.7,0.6-1.9,1.5c0,0.1-0.1,0.3-0.1,0.5V82.2z"/>
		<path class="st0" d="M297,85l-0.1-0.9h0c-0.4,0.5-1.1,1-2.1,1c-1.4,0-2.1-1-2.1-2c0-1.7,1.5-2.6,4.2-2.6v-0.1
			c0-0.6-0.2-1.6-1.6-1.6c-0.6,0-1.3,0.2-1.8,0.5l-0.3-0.8c0.6-0.4,1.4-0.6,2.3-0.6c2.1,0,2.6,1.4,2.6,2.8v2.6c0,0.6,0,1.2,0.1,1.7
			H297z M296.8,81.5c-1.4,0-2.9,0.2-2.9,1.6c0,0.8,0.5,1.2,1.2,1.2c0.9,0,1.5-0.6,1.7-1.2c0-0.1,0.1-0.3,0.1-0.4V81.5z"/>
		<path class="st0" d="M303.6,74.9h1.3V85h-1.3V74.9z"/>
		<path class="st0" d="M314.4,85l-0.1-0.9h0c-0.4,0.5-1.1,1-2.1,1c-1.4,0-2.1-1-2.1-2c0-1.7,1.5-2.6,4.2-2.6v-0.1
			c0-0.6-0.2-1.6-1.6-1.6c-0.6,0-1.3,0.2-1.8,0.5l-0.3-0.8c0.6-0.4,1.4-0.6,2.3-0.6c2.1,0,2.6,1.4,2.6,2.8v2.6c0,0.6,0,1.2,0.1,1.7
			H314.4z M314.2,81.5c-1.4,0-2.9,0.2-2.9,1.6c0,0.8,0.5,1.2,1.2,1.2c0.9,0,1.5-0.6,1.7-1.2c0-0.1,0.1-0.3,0.1-0.4V81.5z"/>
		<path class="st0" d="M321,80.3c0-0.8,0-1.5-0.1-2.2h1.1l0,1.4h0.1c0.3-0.9,1.1-1.5,1.9-1.5c0.1,0,0.2,0,0.4,0v1.2
			c-0.1,0-0.3,0-0.4,0c-0.9,0-1.5,0.7-1.7,1.6c0,0.2-0.1,0.4-0.1,0.6V85H321V80.3z"/>
		<path class="st0" d="M329.1,83.7c0.4,0.2,1,0.5,1.7,0.5c0.9,0,1.3-0.5,1.3-1c0-0.6-0.4-0.9-1.3-1.3c-1.2-0.4-1.8-1.1-1.8-2
			c0-1.1,0.9-2,2.4-2c0.7,0,1.3,0.2,1.7,0.4l-0.3,0.9c-0.3-0.2-0.8-0.4-1.4-0.4c-0.7,0-1.2,0.4-1.2,0.9c0,0.6,0.4,0.8,1.3,1.2
			c1.2,0.5,1.8,1.1,1.8,2.1c0,1.2-0.9,2.1-2.6,2.1c-0.8,0-1.5-0.2-1.9-0.5L329.1,83.7z"/>
		<path class="st0" d="M339.9,76.2c0,0.4-0.3,0.8-0.8,0.8c-0.4,0-0.8-0.3-0.8-0.8c0-0.4,0.3-0.8,0.8-0.8
			C339.6,75.4,339.9,75.7,339.9,76.2z M338.5,85v-6.9h1.3V85H338.5z"/>
		<path class="st0" d="M345.9,78.1l1.4,3.9c0.2,0.6,0.4,1.2,0.6,1.8h0c0.2-0.6,0.4-1.1,0.6-1.8l1.3-3.9h1.3l-2.7,6.9h-1.2l-2.6-6.9
			H345.9z"/>
		<path class="st0" d="M360.6,84.8c-0.3,0.2-1.1,0.4-2,0.4c-2.1,0-3.4-1.4-3.4-3.5c0-2.1,1.5-3.7,3.7-3.7c0.7,0,1.4,0.2,1.7,0.4
			l-0.3,1c-0.3-0.2-0.8-0.3-1.5-0.3c-1.6,0-2.4,1.2-2.4,2.6c0,1.6,1,2.6,2.4,2.6c0.7,0,1.2-0.2,1.5-0.3L360.6,84.8z"/>
		<path class="st0" d="M367.1,76.2c0,0.4-0.3,0.8-0.8,0.8c-0.4,0-0.8-0.3-0.8-0.8c0-0.4,0.3-0.8,0.8-0.8
			C366.8,75.4,367.1,75.7,367.1,76.2z M365.7,85v-6.9h1.3V85H365.7z"/>
		<path class="st0" d="M372.3,84.3c0-0.5,0.4-0.9,0.9-0.9c0.5,0,0.8,0.4,0.8,0.9c0,0.5-0.3,0.9-0.9,0.9
			C372.6,85.2,372.3,84.8,372.3,84.3z"/>
		<path class="st0" d="M384.1,84.8c-0.3,0.2-1.1,0.4-2,0.4c-2.1,0-3.4-1.4-3.4-3.5c0-2.1,1.5-3.7,3.7-3.7c0.7,0,1.4,0.2,1.7,0.4
			l-0.3,1c-0.3-0.2-0.8-0.3-1.5-0.3c-1.6,0-2.4,1.2-2.4,2.6c0,1.6,1,2.6,2.4,2.6c0.7,0,1.2-0.2,1.5-0.3L384.1,84.8z"/>
		<path class="st0" d="M395.3,81.5c0,2.6-1.8,3.7-3.4,3.7c-1.9,0-3.3-1.4-3.3-3.6c0-2.3,1.5-3.7,3.4-3.7
			C393.9,77.9,395.3,79.4,395.3,81.5z M389.8,81.6c0,1.5,0.9,2.7,2.1,2.7c1.2,0,2.1-1.1,2.1-2.7c0-1.2-0.6-2.7-2.1-2.7
			C390.4,78.9,389.8,80.3,389.8,81.6z"/>
		<path class="st0" d="M400.4,80c0-0.7,0-1.3-0.1-1.9h1.1l0.1,1.1h0c0.4-0.7,1-1.3,2.2-1.3c0.9,0,1.7,0.6,2,1.4h0
			c0.2-0.4,0.5-0.7,0.8-0.9c0.4-0.3,0.9-0.5,1.5-0.5c0.9,0,2.3,0.6,2.3,3V85h-1.2v-3.9c0-1.3-0.5-2.1-1.5-2.1
			c-0.7,0-1.3,0.5-1.5,1.1c-0.1,0.2-0.1,0.4-0.1,0.6V85h-1.2v-4.1c0-1.1-0.5-1.9-1.4-1.9c-0.8,0-1.4,0.6-1.6,1.3
			c-0.1,0.2-0.1,0.4-0.1,0.6V85h-1.2V80z"/>
	</g>
</g>
<g>
	<g>
		<path class="st0" d="M84.1,70.1H54.7c-1.8,0-3.3-1.5-3.3-3.3V46.2c0-1.8,1.5-3.3,3.3-3.3H84c1.8,0,3.3,1.5,3.3,3.3l0.1,20.6
			C87.4,68.6,85.9,70.1,84.1,70.1z"/>
		<rect x="55.9" y="38.7" class="st0" width="26.9" height="2.9"/>
		<rect x="58.7" y="34.4" class="st0" width="21.4" height="2.9"/>
		<path class="st1" d="M76.2,51.6H62.6c-0.6,0-1.1-0.5-1.1-1.1V47c0-0.6,0.5-1.1,1.1-1.1h13.6c0.6,0,1.1,0.5,1.1,1.1v3.6
			C77.3,51.1,76.8,51.6,76.2,51.6z"/>
		<path class="st1" d="M71.7,59.9c0-1.3-1-2.3-2.3-2.3c-1.3,0-2.3,1-2.3,2.3c0,0.7,0.3,1.4,0.9,1.8l-0.4,3.4h3.7l-0.4-3.4
			C71.4,61.3,71.7,60.6,71.7,59.9z"/>
	</g>
	<g>
		<path class="st2" d="M79.6,83.2c-5.2,0-10.5,0-15.7,0c-0.8,0-0.9,0-0.9-0.9c0-1.4,0-2.9,0-4.3c0-0.6,0.1-0.7,0.7-0.7
			c2.4,0,4.9,0,7.3,0c7.6,0,15.2,0,22.7,0c6.3,0,12.3-4.2,14.5-10.1c2.7-7.5-0.6-15.5-7.7-19c-1.2-0.6-2.3-1-3.6-1.2
			c-0.6-0.1-0.7-0.4-0.6-0.9c0.2-1.6,0.5-3.3,0.4-4.9c-0.2-5.7-2.2-10.7-6.1-14.9c-2.8-3.1-6.2-5.2-10.1-6.4
			c-4.3-1.3-8.6-1.4-13-0.2c-1.3,0.4-2.6,0.9-3.9,1.5c-0.5,0.2-0.7,0.1-0.7-0.5c0-1.7,0-3.4,0-5.1c0-0.5,0.2-0.7,0.6-0.9
			c2.5-0.9,5-1.5,7.6-1.7c8.3-0.7,15.6,1.8,21.9,7.3c4.5,4,7.4,8.9,8.8,14.8c0.5,2.2,0.8,4.4,0.8,6.7c0,0.6,0.2,1,0.8,1.4
			c5.2,2.7,8.7,6.7,10.6,12.2c0.8,2.5,1.3,5.1,1.1,7.8c-0.7,8.2-4.8,14.2-12.1,18c-2.9,1.5-6,2.2-9.2,2.2
			C89.1,83.2,84.4,83.2,79.6,83.2z"/>
		<path class="st3" d="M39,83.2c-5.4,0-10.9,0-16.3,0c-3.5,0-6.7-1.2-9.5-3.3c-3.3-2.4-5.3-5.7-6.3-9.7c-0.7-3.1-0.6-6.2,0.5-9.2
			c1.8-5,5.2-8.4,10.1-10.3c1-0.4,2.1-0.7,3.1-0.8c0.7-0.1,0.9-0.2,0.9-0.9c0.1-2.4,0.4-4.8,1.2-7c1.9-5.5,5.5-9.7,10.6-12.4
			c2.7-1.4,5.5-2.2,8.5-2.4c2-0.1,4,0,6,0.3c0.6,0.1,0.9-0.3,1.1-0.7c1.3-2.2,2.9-4.2,4.8-5.9c0.7-0.6,1.4-1.2,2.1-1.8
			c0.2-0.1,0.3-0.3,0.5-0.4c0.4-0.2,0.7,0,0.8,0.5c0,0.1,0,0.1,0,0.2c0,2,0,4.1,0,6.1c0,0.3-0.1,0.6-0.3,0.8c-2,2.2-3.6,4.7-4.6,7.6
			c-0.1,0.2-0.2,0.5-0.3,0.7c-0.2,0.5-0.4,0.6-0.9,0.3c-1-0.5-1.9-0.9-3-1.2c-2.2-0.6-4.5-0.7-6.7-0.4c-2.5,0.3-4.8,1.2-6.9,2.7
			c-3.9,2.8-6.1,6.5-6.7,11.2c-0.3,2.5-0.1,4.9,0.7,7.3c0.4,1.3,0.2,1.5-1.1,1.2c-1.6-0.4-3.3-0.4-4.9-0.2c-2.2,0.3-4.1,1.2-5.8,2.6
			c-1.9,1.6-3.2,3.5-3.8,5.9c-0.6,2.2-0.4,4.4,0.4,6.5c1.2,2.9,3.3,5,6.2,6.1c1.2,0.5,2.4,0.7,3.7,0.7c11,0,22,0,33.1,0
			c0.9,0,0.9,0,0.9,0.9c0,1.4,0,2.8,0,4.2c0,0.7,0,0.7-0.7,0.7C50.6,83.2,44.8,83.2,39,83.2z"/>
	</g>
</g>
<g>
	<g>
		<path class="st3" d="M154.2,71.5l-3.8-10.4h-17.6l-3.6,10.4h-10.2l20.5-52.2h4l20.7,52.2H154.2z M141.6,35.1l-6.2,19h12.4
			L141.6,35.1z"/>
		<path class="st3" d="M206,71.5l-13.7-21.3c-1.4,0-3.3-0.1-5.8-0.2v21.5H177V20c0.5,0,2.5-0.1,5.9-0.3c3.4-0.2,6.2-0.3,8.3-0.3
			c13.1,0,19.6,5.1,19.6,15.2c0,3-0.9,5.8-2.7,8.3c-1.8,2.5-4.1,4.3-6.8,5.3l15.2,23.2H206z M186.5,28v14.3c1.7,0.1,3,0.2,3.9,0.2
			c3.8,0,6.6-0.5,8.4-1.6c1.8-1.1,2.7-3.2,2.7-6.3c0-2.5-0.9-4.3-2.8-5.3c-1.9-1-4.9-1.5-9-1.5C188.6,27.7,187.5,27.8,186.5,28z"/>
		<path class="st3" d="M225.7,68.7l3.4-8.2c3.6,2.5,7.2,3.8,10.7,3.8c5.4,0,8.1-1.9,8.1-5.6c0-1.8-0.6-3.4-1.9-5
			c-1.3-1.6-3.9-3.4-7.8-5.4s-6.6-3.6-8-4.9c-1.4-1.3-2.4-2.8-3.2-4.6s-1.1-3.7-1.1-5.8c0-4,1.5-7.3,4.4-9.9
			c2.9-2.6,6.7-3.9,11.2-3.9c6,0,10.3,1.1,13.1,3.3l-2.8,7.9c-3.2-2.3-6.6-3.4-10.2-3.4c-2.1,0-3.7,0.6-4.9,1.7
			c-1.2,1.1-1.7,2.6-1.7,4.3c0,3,3.3,6,9.8,9.2c3.4,1.7,5.9,3.2,7.5,4.7c1.5,1.4,2.7,3.1,3.5,5c0.8,1.9,1.2,4,1.2,6.3
			c0,4.2-1.6,7.6-4.9,10.3c-3.3,2.7-7.7,4-13.2,4C233.9,72.4,229.5,71.2,225.7,68.7z M233.9,86.5l-1.4-4.5c0.8,0.2,1.6,0.3,2.5,0.3
			c3.1,0,4.6-1.1,4.6-3.2c0-0.8-0.2-1.5-0.7-2.2s-1.1-1.2-1.8-1.4l3-3.1c4.2,0.9,6.3,3.3,6.3,7.3c0,2.2-0.8,4-2.5,5.3
			c-1.7,1.3-3.8,1.9-6.5,1.9C236.2,86.8,235,86.7,233.9,86.5z"/>
		<path class="st3" d="M277,5.2c1.5,0,2.7,0.5,3.7,1.6c1,1,1.6,2.3,1.6,3.7c0,1.5-0.5,2.7-1.6,3.7c-1,1-2.3,1.6-3.7,1.6
			c-1.5,0-2.7-0.5-3.8-1.6c-1-1-1.6-2.3-1.6-3.7c0-1.5,0.5-2.7,1.6-3.7C274.3,5.7,275.5,5.2,277,5.2z M272.3,71.5V20h9.1v51.5H272.3
			z"/>
		<path class="st3" d="M318.6,72.2h-5L294.3,20h10.1l11.9,34.8L328.8,20h9.8L318.6,72.2z"/>
		<path class="st3" d="M386.6,22.8l-3.8,7.6c-2-2-5.3-3.1-9.8-3.1c-4.3,0-7.8,1.8-10.5,5.4s-4.1,8.1-4.1,13.7
			c0,5.5,1.3,9.9,3.8,13.1c2.5,3.2,5.9,4.9,10.2,4.9c4.9,0,8.6-1.7,11.4-5.2l4.3,7.4c-3.7,4-9.2,5.9-16.4,5.9
			c-7.2,0-12.8-2.4-16.8-7.1c-4-4.7-6-11.2-6-19.4c0-7.6,2.2-14,6.6-19.1c4.4-5.1,10.1-7.7,17-7.7C378.4,19.1,383.1,20.3,386.6,22.8
			z"/>
		<path class="st3" d="M407.4,5.2c1.5,0,2.7,0.5,3.7,1.6c1,1,1.6,2.3,1.6,3.7c0,1.5-0.5,2.7-1.6,3.7c-1,1-2.3,1.6-3.7,1.6
			c-1.5,0-2.7-0.5-3.8-1.6c-1-1-1.6-2.3-1.6-3.7c0-1.5,0.5-2.7,1.6-3.7C404.7,5.7,406,5.2,407.4,5.2z M402.8,71.5V20h9.1v51.5H402.8
			z"/>
	</g>
</g>
</svg>
